name D:\school\WTK\thesis\model\3dpredictsim\Results\batch_windlass\Pog_s1_tmt_bCst_d05_k800_WL30_ig24_pas.mot
datacolumns 128
datarows 4
range 1.63334501 1.66601191
endheader
time	pelvis_tilt	pelvis_list	pelvis_rotation	pelvis_tx	pelvis_ty	pelvis_tz	hip_flexion_l	hip_adduction_l	hip_rotation_l	hip_flexion_r	hip_adduction_r	hip_rotation_r	knee_angle_l	knee_angle_r	ankle_angle_l	ankle_angle_r	subtalar_angle_l	subtalar_angle_r	tmt_angle_l	tmt_angle_r	mtp_angle_l	mtp_angle_r	lumbar_extension	lumbar_bending	lumbar_rotation	arm_flex_l	arm_add_l	arm_rot_l	arm_flex_r	arm_add_r	arm_rot_r	elbow_flex_l	elbow_flex_r	pro_sup_l	pro_sup_r	glut_med1_l/activation	glut_med2_l/activation	glut_med3_l/activation	glut_min1_l/activation	glut_min2_l/activation	glut_min3_l/activation	semimem_l/activation	semiten_l/activation	bifemlh_l/activation	bifemsh_l/activation	sar_l/activation	add_long_l/activation	add_brev_l/activation	add_mag1_l/activation	add_mag2_l/activation	add_mag3_l/activation	tfl_l/activation	pect_l/activation	grac_l/activation	glut_max1_l/activation	glut_max2_l/activation	glut_max3_l/activation	iliacus_l/activation	psoas_l/activation	quad_fem_l/activation	gem_l/activation	peri_l/activation	rect_fem_l/activation	vas_med_l/activation	vas_int_l/activation	vas_lat_l/activation	med_gas_l/activation	lat_gas_l/activation	soleus_l/activation	tib_post_l/activation	flex_dig_l/activation	flex_hal_l/activation	tib_ant_l/activation	per_brev_l/activation	per_long_l/activation	per_tert_l/activation	ext_dig_l/activation	ext_hal_l/activation	ercspn_l/activation	intobl_l/activation	extobl_l/activation	glut_med1_r/activation	glut_med2_r/activation	glut_med3_r/activation	glut_min1_r/activation	glut_min2_r/activation	glut_min3_r/activation	semimem_r/activation	semiten_r/activation	bifemlh_r/activation	bifemsh_r/activation	sar_r/activation	add_long_r/activation	add_brev_r/activation	add_mag1_r/activation	add_mag2_r/activation	add_mag3_r/activation	tfl_r/activation	pect_r/activation	grac_r/activation	glut_max1_r/activation	glut_max2_r/activation	glut_max3_r/activation	iliacus_r/activation	psoas_r/activation	quad_fem_r/activation	gem_r/activation	peri_r/activation	rect_fem_r/activation	vas_med_r/activation	vas_int_r/activation	vas_lat_r/activation	med_gas_r/activation	lat_gas_r/activation	soleus_r/activation	tib_post_r/activation	flex_dig_r/activation	flex_hal_r/activation	tib_ant_r/activation	per_brev_r/activation	per_long_r/activation	per_tert_r/activation	ext_dig_r/activation	ext_hal_r/activation	ercspn_r/activation	intobl_r/activation	extobl_r/activation	
          1.63334501	         -2.91871443	          1.73940933	         -6.01584883	          2.04168127	          0.85829548	          0.00191289	         31.78194567	          2.33036886	         -3.11844469	        -17.89360986	         -1.75183897	          8.08487773	        -19.08570827	        -10.12305536	          1.15121510	         -0.41206486	          0.02317714	         12.90090750	         -0.26897121	         -8.86082928	          0.84680674	         29.68807755	         -1.05904725	         -0.06698876	          1.93627987	        -10.81625348	        -13.67927777	          6.33510969	          5.21762855	        -13.47678670	         15.50385624	         18.12508625	         38.07277107	         86.51662706	         86.51662706	          0.09065399	          0.05000070	          0.05906691	          0.05000067	          0.05000074	          0.05000208	          0.05000656	          0.05907425	          0.16175795	          0.05907400	          0.05000159	          0.09499949	          0.15669848	          0.14705377	          0.14601714	          0.12889164	          0.05000256	          0.05004753	          0.05907457	          0.05907330	          0.12662282	          0.06836101	          0.06237401	          0.06183602	          0.28156806	          0.05000045	          0.05000096	          0.05324492	          0.12485538	          0.13395753	          0.10629787	          0.06869428	          0.05914670	          0.06206455	          0.05000015	          0.05907473	          0.05907446	          0.47337956	          0.33699873	          0.18685377	          0.19533733	          0.55386856	          0.13617970	          0.05178858	          0.09649629	          0.11510832	          0.27387234	          0.08770543	          0.05000025	          0.29820827	          0.19174671	          0.08889599	          0.05000289	          0.05000037	          0.05000030	          0.06979519	          0.08056117	          0.13265465	          0.05492517	          0.05000216	          0.05000349	          0.05000271	          0.27298726	          0.06057710	          0.05000118	          0.05000501	          0.05000314	          0.05000236	          0.30151745	          0.51495837	          0.05000039	          0.05000142	          0.05000028	          0.21725805	          0.13326466	          0.10062962	          0.05203014	          0.26895808	          0.34640999	          0.21306662	          0.19301498	          0.19623595	          0.25511571	          0.05000002	          0.13858769	          0.19249112	          0.05000015	          0.05000006	          0.05000016	          0.05000001	          0.05000018	          0.05000005	
          1.64423398	         -2.90456764	          1.82775223	         -6.26347011	          2.05859471	          0.85722919	          0.00169999	         31.16434359	          2.73157620	         -2.86800132	        -17.60830418	         -2.03614785	          7.85147587	        -18.71367426	        -12.23435854	          0.75392046	         -1.53037373	         -0.56216545	         13.85474646	         -0.31237292	         -9.37190913	          0.98076187	         30.42968809	         -0.83115420	         -0.31409023	          2.01525183	        -11.92818474	        -13.67227618	          6.15845387	          4.91841951	        -13.51427573	         15.79736227	         18.07601680	         39.11998402	         86.51662706	         86.51662706	          0.07676713	          0.05193544	          0.05000014	          0.05907418	          0.05907408	          0.05000303	          0.05000011	          0.05000019	          0.15812645	          0.05000009	          0.05000085	          0.09742296	          0.22570221	          0.12446627	          0.18989572	          0.14361138	          0.05000022	          0.06880057	          0.05000068	          0.05000030	          0.17006068	          0.17411774	          0.05727001	          0.05233791	          0.24901089	          0.16975147	          0.14071863	          0.06979503	          0.23054360	          0.22664161	          0.19090577	          0.05814246	          0.05006148	          0.05253115	          0.05000004	          0.05000069	          0.05000066	          0.62733814	          0.28523381	          0.15815196	          0.53377960	          0.63091374	          0.29017910	          0.05000004	          0.08167390	          0.09742701	          0.23180400	          0.07423338	          0.05000005	          0.25240182	          0.16229335	          0.07524111	          0.05000156	          0.05000016	          0.05000012	          0.05907427	          0.06818679	          0.18405796	          0.25917373	          0.07161246	          0.05000271	          0.05000036	          0.23105519	          0.11165484	          0.05000184	          0.05000088	          0.05000055	          0.05000040	          0.25520264	          0.46106912	          0.05000013	          0.05000050	          0.05000040	          0.18388596	          0.11279525	          0.08517285	          0.13530553	          0.22764452	          0.29319937	          0.18033833	          0.16336677	          0.16609308	          0.21592852	          0.09723863	          0.11730004	          0.16292350	          0.05000028	          0.13677238	          0.05000059	          0.05097472	          0.05295356	          0.05000147	
          1.65512295	         -2.88520740	          1.91996182	         -6.48378678	          2.07572482	          0.85589315	          0.00150023	         30.40339070	          3.11954383	         -2.53666205	        -17.22833266	         -2.30320393	          7.60872618	        -18.89615936	        -14.55311619	          0.38962466	         -2.64139694	         -1.18428994	         14.73598903	         -0.38759465	         -9.65441361	          1.17147750	         30.46529102	         -0.58845118	         -0.57299503	          2.08205884	        -13.01902145	        -13.67482436	          6.06237618	          4.55035905	        -13.56426016	         16.03124118	         17.98637150	         40.16191136	         86.51662706	         86.51662706	          0.20101094	          0.05000010	          0.19269467	          0.05000011	          0.05000011	          0.05000016	          0.05000035	          0.05000059	          0.13445837	          0.05000015	          0.05000072	          0.08245841	          0.19103374	          0.32075517	          0.27113124	          0.17799099	          0.05000031	          0.06979019	          0.11130013	          0.14538340	          0.18870804	          0.16669039	          0.05000029	          0.05000041	          0.34394542	          0.14367672	          0.11910353	          0.05907420	          0.28841798	          0.28620820	          0.24144771	          0.05907413	          0.05000053	          0.05000009	          0.05000004	          0.05000160	          0.05000050	          0.57477141	          0.24142033	          0.13385899	          0.49047536	          0.56749213	          0.24560600	          0.05000002	          0.06912831	          0.08246165	          0.19619758	          0.06283075	          0.05907404	          0.21363148	          0.13736420	          0.06368373	          0.05000519	          0.05000163	          0.05907497	          0.05000016	          0.05771304	          0.22668994	          0.38318563	          0.23209855	          0.11915497	          0.13599648	          0.19556408	          0.09450437	          0.05907631	          0.05806166	          0.05907579	          0.06978153	          0.21600204	          0.40839978	          0.06239657	          0.05907581	          0.05000187	          0.15564000	          0.09547364	          0.11410455	          0.11452224	          0.19267697	          0.24816221	          0.15263729	          0.13827271	          0.14058035	          0.18276073	          0.20991533	          0.13667690	          0.14993842	          0.06080740	          0.23543908	          0.13917780	          0.07544633	          0.05907430	          0.05425319	
          1.66601191	         -2.86269450	          2.01775653	         -6.67308797	          2.09288235	          0.85434667	          0.00131743	         29.45796613	          3.47818160	         -2.15302300	        -16.72248111	         -2.54787425	          7.37085461	        -19.29243362	        -17.11910031	          0.37541728	         -3.66310239	         -1.85761743	         15.51838612	         -0.67885817	         -9.51601803	          1.24950650	         29.34641679	         -0.34647564	         -0.84283337	          2.13641707	        -14.04233798	        -13.68997657	          6.07725699	          4.14545571	        -13.62117983	         16.21527427	         17.82346234	         41.17546954	         86.51662706	         86.51662706	          0.34796173	          0.37965446	          0.52678743	          0.37117273	          0.29234868	          0.41499055	          0.07869437	          0.10075567	          0.11389766	          0.06918144	          0.05000069	          0.06979236	          0.16168987	          0.27148538	          0.22948407	          0.15700979	          0.05000032	          0.05907114	          0.09420416	          0.29375124	          0.24496382	          0.15238426	          0.05000025	          0.05000018	          0.29111344	          0.12160731	          0.26051774	          0.05000010	          0.31704608	          0.32590644	          0.27202339	          0.05000006	          0.05000012	          0.05000009	          0.07380353	          0.05000070	          0.05000146	          0.70420235	          0.20433675	          0.11329746	          0.42300144	          0.60943513	          0.39219519	          0.05667429	          0.07467360	          0.06979505	          0.22058140	          0.05317967	          0.05000013	          0.21477104	          0.11626446	          0.05390176	          0.05007913	          0.05000042	          0.05000089	          0.05000043	          0.05907534	          0.19186915	          0.32432612	          0.19644691	          0.10085224	          0.11510670	          0.27829374	          0.07998820	          0.05000364	          0.05000192	          0.05000233	          0.05906288	          0.18282321	          0.39182840	          0.05281214	          0.05000176	          0.05000020	          0.13173280	          0.08080836	          0.09657745	          0.09693097	          0.16308065	          0.21004304	          0.12919130	          0.11706465	          0.11898665	          0.15468816	          0.19693995	          0.12364433	          0.14095946	          0.11179118	          0.24188087	          0.11779939	          0.10979529	          0.05000014	          0.05000005	
